<svg class="svg-icon" style="width: 1em;height: 1em;vertical-align: middle;fill: currentColor;overflow: hidden;" viewBox="0 0 1024 1024" version="1.1" xmlns="http://www.w3.org/2000/svg"><path d="M762.154667 299.52C694.954667 328.277333 597.546667 341.333333 469.333333 341.333333c-128.213333 0-225.621333-13.098667-292.821333-41.813333l30.72 460.8a85.333333 85.333333 0 0 0 69.845333 78.293333c53.632 9.813333 117.76 14.72 192.256 14.72a42.666667 42.666667 0 0 1 0 85.333334c-79.317333 0-148.48-5.333333-207.530666-16.085334a170.666667 170.666667 0 0 1-139.733334-156.586666l-36.010666-540.16a85.333333 85.333333 0 0 1 16.554666-56.448C147.029333 109.312 266.325333 85.333333 469.333333 85.333333c202.965333 0 322.261333 23.936 366.72 84.053334a85.333333 85.333333 0 0 1 16.554667 56.405333l-19.754667 296.234667C903.168 604.032 938.666667 670.506667 938.666667 725.333333c0 111.658667-98.133333 213.333333-213.333334 213.333334a213.333333 213.333333 0 0 1-213.333333-213.333334c0-78.250667 62.250667-171.605333 183.978667-286.976l30.165333-28.586666 26.88 26.88 9.130667-137.088z m-8.704-91.178667C715.477333 185.770667 618.922667 170.666667 469.333333 170.666667s-246.186667 15.104-284.117333 37.674666C231.978667 238.421333 327.082667 256 469.333333 256c142.250667 0 237.354667-17.578667 284.117334-47.658667zM853.333333 725.333333c0-37.546667-42.496-104.96-128.725333-195.669333C639.104 615.722667 597.333333 682.624 597.333333 725.333333a128 128 0 0 0 128 128c67.370667 0 128-62.805333 128-128z" fill="#1C1C1C" /></svg>