<svg class="svg-icon" style="width: 1em; height: 1em;vertical-align: middle;fill: currentColor;overflow: hidden;" viewBox="0 0 1024 1024" version="1.1" xmlns="http://www.w3.org/2000/svg"><path d="M55.966 959.843c-8.234 0-15.766-2.209-21.687-8.131-13.35-13.349-7.829-34.887-0.668-54.194 6.454-17.401 17.562-40.751 33.016-69.401 26.868-49.808 67.381-116.629 117.162-193.239 90.309-138.983 194.445-284.241 227.399-317.195 70.889-70.889 186.232-70.889 257.123 0 70.888 70.888 70.888 186.233 0 257.122l-0.001 0.001c-32.955 32.954-178.213 137.091-317.195 227.398-76.61 49.78-143.432 90.294-193.239 117.161-28.65 15.455-52 26.563-69.401 33.017-10.744 3.983-22.179 7.461-32.509 7.461zM539.75 304.497c-36.315 0-72.63 13.823-100.277 41.469-29.206 29.207-125.873 163.735-211.088 293.765-47.419 72.357-87.388 137.179-115.584 187.455-27.724 49.434-39.015 75.912-43.59 89.595 13.683-4.575 40.161-15.865 89.595-43.59 50.276-28.196 115.097-68.165 187.455-115.584 130.03-85.214 264.558-181.88 293.766-211.088 55.292-55.293 55.292-145.261-0.001-200.553-27.646-27.646-63.961-41.469-100.276-41.469z"  /><path d="M566.672 641.236a19.942 19.942 0 0 1-14.143-5.857l-67.305-67.305c-7.811-7.811-7.811-20.475 0-28.284 7.811-7.811 20.474-7.812 28.284-0.001l67.305 67.305c7.811 7.811 7.812 20.475 0.001 28.284a19.939 19.939 0 0 1-14.142 5.858zM324.373 641.236a19.936 19.936 0 0 1-14.142-5.857l-53.844-53.844c-7.811-7.811-7.811-20.475 0-28.285s20.474-7.811 28.284 0l53.844 53.844c7.811 7.811 7.811 20.475 0 28.285a19.936 19.936 0 0 1-14.142 5.857zM297.451 829.69a19.936 19.936 0 0 1-14.142-5.857l-40.383-40.383c-7.811-7.811-7.811-20.474 0-28.284s20.474-7.812 28.284-0.001l40.383 40.383c7.811 7.811 7.811 20.474 0 28.284a19.937 19.937 0 0 1-14.142 5.858zM628.699 324.088a58.7 58.7 0 0 1-9.869-0.843c-42.343-7.209-64.461-58.996-66.844-64.877-1.18-2.91-11.353-29.572-5.599-69.143 3.354-23.06 11.491-45.841 24.187-67.709 15.474-26.653 37.798-51.992 66.353-75.311 6.892-5.628 15.899-8.073 24.724-6.709 8.82 1.364 16.673 6.418 21.543 13.866 11.514 17.606 32.104 53.504 40.634 96.101 4.92 24.567 5.176 48.141 0.759 70.067-5.337 26.493-17.483 50.643-36.104 71.779-19.196 21.788-39.265 32.777-59.784 32.779z m-39.598-80.64c5.022 12.115 20.421 37.682 36.49 40.374 11.661 1.947 24.311-9.23 32.877-18.954 25.776-29.258 34.571-65.443 26.139-107.549-6.094-30.425-19.708-57.179-29.776-73.909-39.147 33.93-62.177 70.648-68.5 109.255-4.787 29.224 2.234 49.315 2.764 50.766l-0.028-0.067 0.028 0.066a0.055 0.055 0 0 0 0.006 0.018z"  /><path d="M616.774 290.433c-1.2 0-2.416-0.108-3.639-0.333-10.863-1.997-18.051-12.422-16.055-23.286l16.735-91.041c1.997-10.864 12.422-18.05 23.287-16.055 10.863 1.997 18.051 12.422 16.054 23.286l-16.734 91.041c-1.772 9.642-10.184 16.388-19.648 16.388zM687.81 358.56c-8.797 0-16.857-5.847-19.283-14.743-2.906-10.656 3.376-21.651 14.032-24.558 57.302-15.628 97.201-48.668 118.589-98.203 15.093-34.954 18.203-71.327 17.787-97.803-19.646 5.132-46.909 19.672-67.425 30.614-11.356 6.057-21.163 11.288-28.853 14.601-10.146 4.369-21.91-0.309-26.281-10.454-4.371-10.144 0.309-21.911 10.453-26.282 6.161-2.655 15.729-7.757 25.856-13.159 27.065-14.435 60.749-32.4 87.311-36.337 9.447-1.402 19.085 1.299 26.462 7.402 7.379 6.104 11.837 15.073 12.231 24.609 1.286 30.984-1.282 77.419-20.818 122.666-11.966 27.711-28.892 51.6-50.31 71.001-25.329 22.945-57.116 39.746-94.478 49.936-1.761 0.481-3.532 0.71-5.273 0.71z"  /><path d="M760.48 407.902c-21.274 0-43.028-3.256-64.927-9.802-10.583-3.164-16.598-14.307-13.434-24.89 3.164-10.582 14.303-16.6 24.891-13.434 47.558 14.217 92.117 10.025 132.437-12.461 28.267-15.764 47.954-37.316 57.969-51.588-27.228-13.34-55.819-15.213-77.145-16.61-7.261-0.476-13.532-0.887-18.952-1.705-10.922-1.649-18.438-11.84-16.789-22.762 1.648-10.921 11.829-18.441 22.762-16.79 3.749 0.566 9.238 0.926 15.595 1.342 25.479 1.669 63.985 4.191 101.197 25.403 15.884 9.055 21.551 28.111 12.901 43.382-12.295 21.714-39.258 52.626-78.055 74.263-30.581 17.054-63.882 25.652-98.45 25.652z m143.794-108.547h0.01-0.01z"  /></svg>