<svg class="svg-icon" style="width: 1em; height: 1em;vertical-align: middle;fill: currentColor;overflow: hidden;" viewBox="0 0 1024 1024" version="1.1" xmlns="http://www.w3.org/2000/svg"><path d="M445.217391 255.955478V47.949913C445.217391 21.459478 465.14087 0 489.73913 0s44.521739 21.459478 44.52174 47.949913V167.17913A196.897391 196.897391 0 0 1 567.763478 122.434783C603.870609 86.26087 653.846261 66.782609 703.821913 66.782609h30.564174v27.826087c2.493217 47.638261-15.293217 93.028174-45.256348 128C835.405913 223.565913 934.956522 403.500522 934.956522 623.304348c0 220.382609-120.208696 400.695652-267.130435 400.695652-22.26087 0-42.295652-4.452174-64.556522-11.130435-28.93913-11.130435-60.104348-15.582609-91.269565-15.582608-31.165217 0-62.330435 4.452174-91.269565 15.582608-22.26087 6.678261-42.295652 11.130435-64.556522 11.130435-146.921739 0-267.130435-180.313043-267.130435-400.695652s100.062609-400.695652 246.984348-400.695652c37.843478 0 69.008696 8.904348 91.269565 24.486956 4.518957 3.383652 10.752 6.344348 17.92 8.859826z" fill="#000000" /></svg>